<?xml version="1.0" encoding="UTF-8"?>
<svg width="64px" height="64px" viewBox="0 0 18 23" version="1.1" xmlns="http://www.w3.org/2000/svg" xmlns:xlink="http://www.w3.org/1999/xlink">
    <!-- Generator: Sketch 49 (51002) - http://www.bohemiancoding.com/sketch -->
    <title>002-apple</title>
    <desc>Created with Sketch.</desc>
    <defs>
        <polygon id="path-1" points="0.0268986263 0.00361967213 17.9731568 0.00361967213 17.9731568 22.08 0.0268986263 22.08"></polygon>
    </defs>
    <g id="Current-designs" stroke="none" stroke-width="1" fill="none" fill-rule="evenodd">
        <g id="X-Cloud---install-buttons" transform="translate(-433.000000, -1249.000000)">
            <g id="002-apple" transform="translate(433.000000, 1249.000000)">
                <mask id="mask-2" fill="white">
                    <use xlink:href="#path-1"></use>
                </mask>
                <g id="Clip-2"></g>
                <path d="M0.9531,8.1166623 C-0.90351,11.3559974 0.27666,16.2715121 2.32983,19.2521311 C3.35457,20.7424407 4.39209,22.08 5.8131,22.08 C5.84019,22.08 5.86692,22.079638 5.89428,22.0781902 C6.5619,22.0517666 7.04457,21.8449023 7.51113,21.6451869 C8.03457,21.4207672 8.57637,21.1888367 9.42606,21.1888367 C10.23435,21.1888367 10.75005,21.4133469 11.24892,21.6303462 C11.74041,21.8442689 12.24666,22.0655213 12.99519,22.0514046 C14.59584,22.0213613 15.57846,20.578017 16.4457,19.3044354 C17.35029,17.9750203 17.80452,16.6840643 17.95743,16.1909744 L17.96382,16.1711567 C17.99298,16.0834702 17.95185,15.9880918 17.86815,15.9495423 C17.86572,15.9480944 17.85726,15.9445652 17.85483,15.9438413 C17.57322,15.8279213 15.10029,14.7250977 15.07428,11.7186885 C15.05043,9.27649574 16.92945,7.98345836 17.30637,7.74872262 L17.32392,7.73777311 C17.36469,7.71162098 17.39322,7.6695423 17.40267,7.62149115 C17.41221,7.57371148 17.40231,7.52394098 17.37495,7.48358164 C16.07805,5.57510951 14.08995,5.28779803 13.28976,5.25313967 C13.17339,5.24146623 13.05351,5.23540328 12.93327,5.23540328 C11.99322,5.23540328 11.09286,5.59248393 10.36935,5.87916197 C9.86976,6.07742951 9.43839,6.24818754 9.14094,6.24818754 C8.80668,6.24818754 8.37279,6.0753482 7.87041,5.87490885 C7.19892,5.60660066 6.43743,5.30300066 5.6313,5.30300066 C5.61195,5.30300066 5.59305,5.30327213 5.57442,5.3036341 C3.70017,5.3312341 1.92942,6.40935344 0.9531,8.1166623 Z" id="Fill-1" fill="#666" mask="url(#mask-2)"></path>
                <path d="M13.2912,1.22560924e-15 C12.1563,0.0466937705 10.79469,0.749000656 9.98118,1.70730885 C9.28971,2.51295738 8.61399,3.85576525 8.79192,5.20961311 C8.80308,5.29449443 8.87166,5.35982951 8.95644,5.36625443 C9.03303,5.37222689 9.11106,5.3753941 9.18918,5.3753941 C10.29906,5.3753941 11.49606,4.75824 12.31344,3.76427803 C13.17411,2.7147541 13.60899,1.36760262 13.4775,0.161165902 C13.46733,0.0667829508 13.38435,-0.00352918033 13.2912,1.22560924e-15 Z" id="Fill-3" fill="#666" mask="url(#mask-2)"></path>
            </g>
        </g>
    </g>
</svg>