<?xml version="1.0" encoding="UTF-8"?>
<svg  width="64px" height="64px" viewBox="0 0 20 24" version="1.1" xmlns="http://www.w3.org/2000/svg" xmlns:xlink="http://www.w3.org/1999/xlink">
    <!-- Generator: Sketch 49 (51002) - http://www.bohemiancoding.com/sketch -->
    <title>media</title>
    <desc>Created with Sketch.</desc>
    <defs></defs>
    <g id="Current-designs" stroke="none" stroke-width="1" fill="none" fill-rule="evenodd">
        <g id="X-Cloud---install-buttons" transform="translate(-869.000000, -1249.000000)" fill="#666" fill-rule="nonzero">
            <g id="media" transform="translate(869.000000, 1249.000000)">
                <path d="M2.54192661,17.0666899 C2.72850917,17.5959117 2.47380734,18.1900348 1.9643578,18.3565854 C1.67139908,18.4523113 1.34461009,18.4850871 1.03502294,18.4760976 C0.467041284,18.4595122 0.285756881,18.6657607 0.47162844,19.2049245 C0.535733945,19.3909872 0.625,19.5683159 0.707155963,19.747619 C0.869885321,20.1027178 0.880802752,20.4555168 0.703302752,20.8091057 C0.644311927,20.9265738 0.587362385,21.0452962 0.53353211,21.1653659 C0.309770642,21.6645064 0.398348624,21.8731475 0.926077982,22.0085714 C1.34926606,22.1171893 1.78444954,22.1778862 2.20784404,22.2857375 C3.13571101,22.5220906 4.05988532,22.7735424 4.98488532,23.0215331 C5.4465367,23.1452265 5.90633028,23.2509872 6.38568807,23.1091986 C7.00518349,22.9259466 7.34552752,22.4702439 7.21635321,21.8367247 C7.11637615,21.3463182 6.97355505,20.83482 6.72016055,20.4124739 C6.10252294,19.3829268 5.41337156,18.3970035 4.74369266,17.3999303 C4.61373853,17.2064576 4.4496789,17.034007 4.28715596,16.8659698 C3.74791284,16.3083856 3.53417431,16.2550987 2.81876147,16.4929384 C2.64470183,16.1369106 2.69954128,15.7636702 2.76004587,15.3994193 C2.79178899,15.208223 2.8584633,15.0092683 2.96,14.8460859 C3.39146789,14.1533101 3.64272936,13.3847851 3.91116972,12.6222067 C4.22183486,11.7395354 4.61919725,10.9155865 5.22098624,10.1801394 C5.71655963,9.57447154 6.10690367,8.87974448 6.53527523,8.21869919 C6.68844037,7.98239257 6.69130734,7.7184669 6.67816514,7.4338676 C6.60990826,5.95600465 6.52768349,4.47681765 6.52915138,2.99816492 C6.53100917,1.17372822 8.03779817,-0.245296167 10.1172936,0.0356562137 C12.4093807,0.345319396 13.7779817,2.06917538 13.7097018,4.42 C13.6482569,6.53825784 14.3376835,8.38473868 15.7676606,9.98761905 C17.1927064,11.5849942 17.8592661,13.5443902 17.9794725,15.6875029 C17.9943578,15.953705 17.9408028,16.2368177 17.8564908,16.4908246 C17.8045413,16.6474797 17.6351376,16.7647387 17.5168578,16.8981649 C17.3566743,17.0789082 17.1843578,17.2498955 17.0361468,17.4400465 C16.7591514,17.7953078 16.4531422,18.0968873 15.9943119,18.1966783 C15.3025,18.3470848 14.8434633,18.1292915 14.5307798,17.4889431 C14.4895642,17.4044832 14.4537615,17.3163066 14.4033716,17.2377933 C14.2880734,17.0579791 14.1724771,16.7970499 13.9347018,16.8761672 C13.7804128,16.92741 13.6098165,17.1519396 13.5812156,17.3220906 C13.5184174,17.6955865 13.4505046,18.1091289 13.546078,18.4613937 C13.8207339,19.4742625 13.7576376,20.4750523 13.6163073,21.4897561 C13.5357339,22.0681069 13.6068119,22.6288269 14.1468119,22.964878 C14.7086239,23.3143322 15.2570642,23.1355633 15.771078,22.8028339 C15.8569037,22.7472242 15.9373624,22.6809059 16.0127294,22.6111498 C16.7054128,21.9704297 17.5108028,21.5405807 18.4022936,21.2525436 C18.7443807,21.1419977 19.0814908,20.987619 19.387844,20.7983275 C19.8361927,20.5211614 19.8194954,20.1974681 19.3682569,19.9147967 C19.2034174,19.8115447 19.0255046,19.7173519 18.8411009,19.6608362 C18.3044495,19.4966783 18.0426606,19.1042044 17.9290138,18.5836005 C17.8458257,18.2026945 17.8224541,17.8221138 18.0393807,17.3819512 C18.0781193,17.6276423 18.1029358,17.7994657 18.1325459,17.9704297 C18.2527752,18.6660163 18.6097248,19.1798839 19.2408257,19.5044599 C19.4442431,19.6089895 19.6344266,19.7593496 19.7956651,19.923856 C20.033555,20.1665273 20.0343578,20.4474564 19.8162844,20.7115679 C19.7042202,20.8471545 19.5712615,20.9743322 19.4251835,21.0699187 C19.1523853,21.2484321 18.8755963,21.4307085 18.5783945,21.5590244 C17.535711,22.0090825 16.6474771,22.68223 15.8091055,23.4397213 C15.3571101,23.8481301 14.7952982,23.8080139 14.2451606,23.7508711 C13.7519954,23.699698 13.3652752,23.4682462 13.1249541,23.0124971 C12.987156,22.7511498 12.7636009,22.5931475 12.4747248,22.5882927 C11.4886927,22.5715215 10.5023624,22.5700581 9.51616972,22.5670616 C9.31158257,22.5664576 9.10694954,22.5894077 8.90220183,22.5926132 C8.32761468,22.6016957 7.80298165,22.7653659 7.33112385,23.099187 C7.19380734,23.1964228 7.05433486,23.2905923 6.91933486,23.3909872 C6.47463303,23.7216028 5.98745413,23.8061556 5.46472477,23.63482 C4.87236239,23.4407898 4.29325688,23.1982346 3.69211009,23.0403717 C2.80238532,22.8067596 1.89722477,22.6340302 1.0006422,22.4265041 C0.00162844037,22.1951684 -0.183715596,21.8491521 0.226949541,20.9097096 C0.424311927,20.4582578 0.429059633,20.0211847 0.30837156,19.5606272 C0.248899083,19.3336121 0.190802752,19.1029268 0.166995413,18.8702671 C0.125986239,18.4693844 0.263188073,18.2905226 0.65646789,18.2242276 C0.940114679,18.1763995 1.23144495,18.1747038 1.51479358,18.1253891 C2.06412844,18.0296167 2.43481651,17.6497329 2.54192661,17.0666899 Z M14.2716972,10.5614866 C14.4788532,10.9234379 14.7045413,11.2760046 14.8894954,11.6492683 C15.3539679,12.5866667 15.6797936,13.5637863 15.5833028,14.635029 C15.5633257,14.8573984 15.5150688,15.0840883 15.4375688,15.2927062 C15.3208716,15.6069454 15.0133945,15.7517305 14.6595642,15.6992102 C14.3451606,15.65259 14.3025459,15.4032056 14.2792202,15.154216 C14.2554817,14.901324 14.2463073,14.6463415 14.2443119,14.3921022 C14.2371101,13.485784 14.0627752,12.6107085 13.7292661,11.774216 C13.6096789,11.474216 13.4036009,11.2097561 13.2390596,10.9278049 C13.1750229,10.8181649 13.0894954,10.7119861 13.0600229,10.5924971 C12.8577294,9.77228804 12.5771789,8.9928223 12.0588991,8.31226481 C11.8030734,7.97651568 11.7231651,7.58213705 11.8331422,7.16076655 C11.8711239,7.01514518 11.9112385,6.86977933 11.9408257,6.72232288 C12.0125459,6.36445993 11.9077064,6.19688734 11.5745642,6.07168409 C11.2188532,5.93807201 10.8767661,5.76336818 10.5154128,5.65036005 C10.2180963,5.5574216 10.1538532,5.35711963 10.1663991,5.09407666 C10.1735092,4.94466899 10.1869266,4.79084785 10.2298624,4.649036 C10.3048624,4.40113821 10.4491284,4.21372822 10.7338991,4.19056911 C11.0316743,4.16631823 11.2608028,4.2885482 11.3920413,4.56541231 C11.5218807,4.8395122 11.5512385,5.11955865 11.4326835,5.41231127 C11.3263073,5.67512195 11.4290367,5.81022067 11.6969037,5.73521487 C11.8108028,5.70332172 11.9647248,5.56339141 11.9771101,5.45770035 C12.0381422,4.93927991 12.0182798,4.42222997 11.750711,3.94954704 C11.4942661,3.49651568 11.0294037,3.30383275 10.5357339,3.44571429 C9.9178211,3.62332172 9.62110092,4.11015099 9.68215596,4.84655052 C9.69483945,4.9995122 9.70777523,5.1524971 9.71745413,5.26792102 C9.36279817,5.24199768 9.03603211,5.21811847 8.70493119,5.19396051 C8.68818807,4.99505226 8.68793578,4.81426249 8.65449541,4.64004646 C8.61222477,4.41981417 8.56415138,4.19595819 8.48006881,3.98980256 C8.37240826,3.72599303 8.18869266,3.52167247 7.87506881,3.52336818 C7.56993119,3.52508711 7.41447248,3.7383043 7.29727064,3.985482 C7.03614679,4.53628339 7.08805046,5.08429733 7.33715596,5.62113821 C7.37591743,5.70471545 7.47704128,5.82144019 7.53944954,5.81554007 C7.62465596,5.80747967 7.70036697,5.69649245 7.79238532,5.61941928 C7.39509174,5.38970964 7.21504587,4.9013705 7.40541284,4.53337979 C7.47458716,4.39962834 7.65449541,4.29200929 7.80619266,4.2430662 C7.99142202,4.18325203 8.17043578,4.29068525 8.23084862,4.47795587 C8.30456422,4.70645761 8.33772936,4.95003484 8.36963303,5.18970964 C8.37736239,5.24764228 8.32580275,5.3328223 8.27651376,5.37626016 C7.98454128,5.63335656 7.68415138,5.88062718 7.38922018,6.13433217 C7.32605505,6.18866434 7.26231651,6.2485482 7.21823394,6.31832753 C7.09316514,6.51630662 7.06954128,6.69036005 7.30775229,6.84357724 C7.45341743,6.93730546 7.57616972,7.07614402 7.68885321,7.21198606 C7.86275229,7.42146341 8.07983945,7.54285714 8.34300459,7.53653891 C9.40295872,7.51121951 10.4327523,7.37674797 11.2845183,6.6396748 C11.3293119,6.60092915 11.4597706,6.59716609 11.4969495,6.63337979 C11.5404358,6.6757259 11.5562156,6.79558653 11.5275459,6.85291521 C11.4950229,6.91788618 11.4056422,6.96455285 11.3313303,6.99551684 C10.8073394,7.21389082 10.2794266,7.42253194 9.75566514,7.64146341 C9.23571101,7.85876887 8.70348624,7.94806039 8.14520642,7.83728223 C8.07951835,7.82422764 8.00915138,7.83551684 7.90263761,7.83551684 C8.14107798,8.17477352 8.40477064,8.40740999 8.79298165,8.38304297 C9.08561927,8.36469222 9.3921789,8.33091754 9.66100917,8.22325203 C10.0650917,8.06141696 10.4396101,7.82501742 10.8309174,7.6288734 C10.9625,7.56297329 11.103922,7.50968641 11.2468119,7.47849013 C11.2969266,7.46747967 11.3838532,7.52740999 11.417156,7.57916376 C11.4355963,7.60789779 11.3919266,7.70248548 11.351445,7.7395122 C11.2837156,7.80146341 11.1955734,7.84030197 11.1168807,7.89022067 C10.6291743,8.19974448 10.1416284,8.50945412 9.65424312,8.81941928 C9.46536697,8.9395122 9.28502294,9.07658537 9.08669725,9.17732869 C8.70662844,9.37049942 8.44091743,9.3324971 8.15644495,9.0143554 C7.92649083,8.75716609 7.73844037,8.4616957 7.52855505,8.1858072 C7.46020642,8.09591173 7.3815367,8.01407666 7.30756881,7.92857143 C7.2721789,8.5430662 6.96458716,9.01247387 6.705,9.50034843 C6.4237844,10.0289199 6.22238532,10.5680372 6.50699541,11.1252265 C6.41353211,11.2356098 6.32988532,11.3140767 6.27002294,11.4081533 C5.59678899,12.4656446 5.06084862,13.5716841 5.07126147,14.8735656 C5.07376147,15.1929617 5.05942661,15.5135192 5.03110092,15.8315215 C5.02325688,15.9196283 4.94610092,16.0612544 4.88490826,16.0704762 C4.79619266,16.0837863 4.64116972,16.0252729 4.60504587,15.9517538 C4.4458945,15.6279907 4.26224771,15.298885 4.19655963,14.9505691 C4.12704128,14.5820441 4.18094037,14.1896167 4.18094037,13.7668757 C4.12227064,13.8932636 4.04545872,13.9938444 4.0309633,14.1029036 C3.99399083,14.3810685 3.94286697,14.6678746 3.97387615,14.9423926 C4.02761468,15.4182578 4.10181193,15.9154936 4.46511468,16.2646225 C4.96419725,16.7441115 5.49149083,17.1942625 6.01761468,17.6438328 C6.48002294,18.0389547 6.96775229,18.4039721 7.42559633,18.8042044 C7.93720183,19.2515215 7.77029817,20.0025552 7.12729358,20.2144483 C7.07811927,20.2306388 7.02981651,20.2495935 6.94112385,20.2818118 C7.4208945,20.9444599 7.87066514,21.5944251 7.82362385,22.4507085 C8.37146789,21.8140999 7.87607798,21.3424158 7.58873853,20.8321951 C7.74864679,20.6702904 7.87552752,20.6289431 8.09013761,20.7875261 C8.33029817,20.964971 8.62022936,21.1498722 8.90344037,21.1782811 C10.3474083,21.3229733 11.7281422,21.2289199 12.6548165,19.8454355 C12.7137615,19.7574448 12.8423624,19.7172358 12.9385321,19.6548432 C12.9839679,19.7617654 13.0745183,19.8721254 13.0668807,19.9749361 C13.037844,20.3660395 12.991055,20.7571196 12.9231881,21.1431591 C12.8778211,21.4009292 12.7724541,21.6474564 12.7185092,21.9042741 C12.6761009,22.1062718 12.743945,22.2577933 13.0076606,22.2574448 C13.0394725,22.1003949 13.0673624,21.9444599 13.1029358,21.79036 C13.3461009,20.7371196 13.4919037,19.6853194 13.2563991,18.6015099 C13.1784174,18.2425319 13.2070642,17.849338 13.2443349,17.47777 C13.296078,16.9626945 13.5375688,16.7299884 14.0161009,16.6150058 C14.0795183,16.5998142 14.1649312,16.5335656 14.1791284,16.4755865 C14.2851147,16.0436005 14.5969725,15.8710337 14.9872936,15.8039721 C15.4455505,15.7253194 15.8861697,15.802439 16.3517661,16.0475261 C16.3034174,15.9615796 16.2938532,15.9215331 16.268922,15.9039489 C16.0722936,15.7653194 15.8727064,15.6309408 15.6884862,15.5052497 C16.0670413,13.6023229 15.6519037,11.9415099 14.2716972,10.5614866 Z M8.05321101,5.13958188 C8.09518349,5.12601626 8.13708716,5.11242741 8.1790367,5.09881533 C8.1246789,4.91918699 8.07548165,4.73749129 8.00961009,4.56229965 C8.00100917,4.53946574 7.90626147,4.5499187 7.87194954,4.54678281 C7.94061927,4.77140534 7.99692661,4.95549361 8.05321101,5.13958188 Z M11.2182569,4.94432056 C11.3398165,4.66285714 11.1853899,4.44276423 10.8951835,4.46134727 C11.001445,4.62018583 11.1081422,4.77974448 11.2182569,4.94432056 Z" id="Shape"></path>
            </g>
        </g>
    </g>
</svg>